<svg width="24" height="24" viewBox="0 0 24 24" fill="none" xmlns="http://www.w3.org/2000/svg">
<path d="M21.4999 19.583C21.4999 20.147 21.0429 20.6051 20.4777 20.6051H18.4825C18.0835 20.6051 17.7201 20.3721 17.5529 20.0077L14.7363 13.8516H8.49657C7.93256 13.8516 7.47445 13.3946 7.47445 12.8294V4.86986C7.01856 4.46747 6.72876 3.88118 6.72876 3.22466C6.72876 2.01306 7.71186 1.03107 8.92347 1.03107C10.1362 1.03107 11.1182 2.01306 11.1182 3.22466C11.1182 4.23117 10.4416 5.07606 9.51868 5.33577V8.09894H13.1947C13.7587 8.09894 14.2169 8.55594 14.2169 9.12106C14.2169 9.68506 13.7587 10.1432 13.1947 10.1432H9.51868V11.8073H15.3928C15.7929 11.8073 16.1563 12.0414 16.3224 12.4048L19.1391 18.5609H20.4777C21.0429 18.5609 21.4999 19.0179 21.4999 19.583Z" fill="black"/>
<path d="M15.9059 19.1C14.6876 21.4864 12.2678 22.9689 9.5893 22.9689C5.68029 22.9689 2.50024 19.7889 2.50024 15.8799C2.50024 13.674 3.50118 11.6309 5.24669 10.2766C5.68252 9.93887 6.31005 10.018 6.64779 10.4538C6.98663 10.8896 6.9075 11.5172 6.47167 11.8549C5.2166 12.828 4.49766 14.296 4.49766 15.8799C4.49766 18.6876 6.78154 20.9715 9.5893 20.9715C11.5132 20.9715 13.252 19.9059 14.127 18.1916C14.3778 17.7 14.9797 17.505 15.4712 17.7558C15.9616 18.0066 16.1567 18.6085 15.9059 19.1Z" fill="black"/>
</svg>
