<svg width="21" height="16" viewBox="0 0 21 16" fill="none" xmlns="http://www.w3.org/2000/svg">
<path d="M21 12.8362C21 13.4551 20.7542 14.0488 20.3166 14.4864C19.879 14.9241 19.2855 15.17 18.6667 15.17H2.33333C1.71449 15.17 1.121 14.9241 0.683417 14.4864C0.245833 14.0488 0 13.4551 0 12.8362V2.33385C0 1.71487 0.245833 1.12125 0.683417 0.683568C1.121 0.245887 1.71449 0 2.33333 0H18.6667C19.2855 0 19.879 0.245887 20.3166 0.683568C20.7542 1.12125 21 1.71487 21 2.33385V12.8362Z" fill="#00AFCA"/>
<path d="M11.1039 8.39011C12.0269 8.39011 12.7751 7.6417 12.7751 6.71849C12.7751 5.79528 12.0269 5.04688 11.1039 5.04688C10.1809 5.04688 9.43262 5.79528 9.43262 6.71849C9.43262 7.6417 10.1809 8.39011 11.1039 8.39011Z" fill="#FFCC4D"/>
<path d="M11.105 4.92071C11.2042 4.91954 11.2404 4.85711 11.2404 4.78301C11.2404 4.68383 11.105 3.91016 11.105 3.91016C11.105 3.91016 10.9674 4.68383 10.9674 4.78301C10.9674 4.85711 11.0047 4.92071 11.105 4.92071ZM11.105 8.52534C11.0047 8.52592 10.9674 8.58835 10.9674 8.66245C10.9674 8.76222 11.105 9.52539 11.105 9.52539C11.105 9.52539 11.2404 8.76164 11.2404 8.66245C11.241 8.58893 11.2042 8.52534 11.105 8.52534ZM10.6378 8.45474C10.5415 8.43023 10.4908 8.48099 10.4715 8.55276C10.4459 8.64845 10.3765 9.43145 10.3765 9.43145C10.3765 9.43145 10.7095 8.71905 10.7352 8.62336C10.755 8.55159 10.7346 8.48041 10.6378 8.45474ZM11.5711 4.97264C11.668 4.99831 11.7205 4.94697 11.7397 4.87578C11.7654 4.77951 11.8295 4.00643 11.8295 4.00643C11.8295 4.00643 11.5017 4.70833 11.4755 4.80519C11.4562 4.87637 11.4749 4.94697 11.5711 4.97264ZM10.2044 8.27387C10.1175 8.22544 10.055 8.26103 10.0183 8.32579C9.96871 8.41156 9.69921 9.14964 9.69921 9.14964C9.69921 9.14964 10.205 8.54809 10.2545 8.46232C10.2919 8.39756 10.2913 8.32404 10.2044 8.27387ZM12.0063 5.15176C12.0932 5.20194 12.1574 5.16577 12.1941 5.10158C12.2443 5.01523 12.5062 4.28591 12.5062 4.28591C12.5062 4.28591 12.0069 4.87929 11.9567 4.96505C11.9205 5.02924 11.9205 5.10217 12.0063 5.15176ZM9.83221 7.98855C9.76104 7.91912 9.69163 7.93721 9.63913 7.98972C9.56913 8.06032 9.11763 8.70329 9.11763 8.70329C9.11763 8.70329 9.76221 8.25286 9.83221 8.18343C9.88471 8.13092 9.90337 8.05857 9.83221 7.98855ZM12.3808 5.43883C12.452 5.50942 12.5225 5.49134 12.575 5.43883C12.6456 5.36881 13.0878 4.73109 13.0878 4.73109C13.0878 4.73109 12.4525 5.17568 12.3825 5.24628C12.33 5.29879 12.3108 5.36881 12.3808 5.43883ZM9.54754 7.61572C9.49679 7.53054 9.42504 7.53054 9.36029 7.56729C9.27396 7.61689 8.67196 8.121 8.67196 8.121C8.67196 8.121 9.41104 7.85377 9.49679 7.80418C9.56154 7.76684 9.59771 7.70266 9.54754 7.61572ZM12.6684 5.81341C12.7191 5.90034 12.7926 5.90093 12.8562 5.86417C12.9425 5.81399 13.5346 5.31338 13.5346 5.31338C13.5346 5.31338 12.806 5.57769 12.7197 5.62728C12.6555 5.66462 12.6194 5.72706 12.6684 5.81341ZM9.36846 7.18221C9.34162 7.08652 9.27163 7.06785 9.19988 7.08652C9.10421 7.11219 8.39196 7.4436 8.39196 7.4436C8.39196 7.4436 9.17479 7.3765 9.27046 7.35083C9.34221 7.33099 9.39412 7.27906 9.36846 7.18221ZM12.8486 6.24867C12.8755 6.34552 12.9455 6.36536 13.0172 6.34611C13.1135 6.32044 13.8152 5.9902 13.8152 5.9902C13.8152 5.9902 13.0429 6.05671 12.946 6.08238C12.8749 6.10105 12.823 6.15298 12.8486 6.24867ZM9.30721 6.71719C9.30604 6.618 9.24363 6.58183 9.16954 6.58183C9.07038 6.58183 8.29688 6.71719 8.29688 6.71719C8.29688 6.71719 9.07038 6.85489 9.16954 6.85489C9.24363 6.85489 9.30721 6.81754 9.30721 6.71719ZM12.911 6.71719C12.9116 6.81754 12.974 6.85489 13.0481 6.85489C13.1479 6.85489 13.9109 6.71719 13.9109 6.71719C13.9109 6.71719 13.1473 6.58183 13.0481 6.58183C12.974 6.58124 12.911 6.618 12.911 6.71719ZM9.36846 6.25217C9.39296 6.1559 9.34221 6.10514 9.27046 6.08588C9.17479 6.06021 8.39196 5.99078 8.39196 5.99078C8.39196 5.99078 9.10421 6.32394 9.19988 6.34961C9.27163 6.36886 9.34279 6.34903 9.36846 6.25217ZM12.8492 7.18513C12.8235 7.28198 12.8749 7.33449 12.946 7.35375C13.0423 7.37942 13.8152 7.4436 13.8152 7.4436C13.8152 7.4436 13.1135 7.11511 13.0166 7.08944C12.9455 7.07077 12.8749 7.08885 12.8492 7.18513ZM9.54813 5.81866C9.59654 5.73231 9.56096 5.66929 9.49621 5.63253C9.41046 5.58294 8.67254 5.31338 8.67254 5.31338C8.67254 5.31338 9.27396 5.81924 9.35971 5.86884C9.42446 5.90618 9.49796 5.90501 9.54813 5.81866ZM12.6695 7.62097C12.6194 7.70791 12.6555 7.77209 12.7197 7.80885C12.8055 7.85902 13.5352 8.121 13.5352 8.121C13.5352 8.121 12.942 7.62214 12.8562 7.57196C12.792 7.5352 12.7191 7.5352 12.6695 7.62097ZM9.83338 5.44641C9.90279 5.37523 9.88471 5.3058 9.83221 5.25328C9.76162 5.18327 9.11879 4.73167 9.11879 4.73167C9.11879 4.73167 9.56913 5.3764 9.63854 5.44641C9.69104 5.49892 9.76279 5.51759 9.83338 5.44641ZM12.3825 7.99555C12.312 8.06674 12.33 8.13792 12.3825 8.18985C12.4525 8.26045 13.0901 8.70271 13.0901 8.70271C13.0901 8.70271 12.6456 8.06732 12.575 7.99672C12.5225 7.94421 12.4525 7.92495 12.3825 7.99555ZM10.2067 5.1611C10.2913 5.11034 10.2919 5.03857 10.2551 4.97381C10.2055 4.88804 9.70154 4.28532 9.70154 4.28532C9.70154 4.28532 9.96871 5.02457 10.0183 5.11034C10.055 5.1751 10.1198 5.21128 10.2067 5.1611ZM12.0086 8.2832C11.9223 8.33338 11.9211 8.40631 11.9579 8.47049C12.008 8.55684 12.5085 9.14906 12.5085 9.14906C12.5085 9.14906 12.2443 8.41973 12.1947 8.33338C12.1574 8.26978 12.0944 8.23302 12.0086 8.2832ZM10.6395 4.98197C10.7352 4.95514 10.7539 4.88512 10.7352 4.81335C10.7095 4.71767 10.3782 4.00526 10.3782 4.00526C10.3782 4.00526 10.4453 4.78827 10.471 4.88395C10.4902 4.95572 10.5427 5.00765 10.6395 4.98197ZM11.5729 8.46349C11.476 8.49033 11.4562 8.56034 11.4755 8.63211C11.5011 8.72838 11.8313 9.43029 11.8313 9.43029C11.8313 9.43029 11.7648 8.6572 11.7391 8.56151C11.7205 8.48975 11.6685 8.43782 11.5729 8.46349Z" fill="#FFCC4D"/>
<path d="M12.7436 10.877L12.722 10.8864L12.6981 10.8899L12.68 10.8934L12.6467 10.8864L12.6321 10.8805L12.6187 10.8741L12.603 10.8642L12.5767 10.8455L12.5528 10.8263L12.5394 10.8169L12.5225 10.8099L12.5108 10.807H12.4939L12.428 10.9441L12.4146 10.9634L12.4017 10.9791L12.3883 10.989L12.3766 10.999L12.3597 11.0054H12.344L12.3294 10.999L12.309 10.989L12.3031 10.9791L12.2961 10.9692L12.2891 10.9564L12.2821 10.9412L12.2728 10.8928L12.2536 10.9085L12.2355 10.9313L12.1993 10.9861L12.1777 11.0147L12.155 11.0369L12.1427 11.0503L12.127 11.0602L12.1112 11.0672L12.092 11.0731H12.0826L12.0657 11.0766L12.05 11.0731L12.0377 11.0672L12.0004 11.0223L11.9584 10.9774L11.9298 11.0223L11.8966 11.0602L11.8808 11.076L11.8662 11.0917L11.8505 11.1046L11.8207 11.1209L11.805 11.1244H11.7892L11.7758 11.1209L11.763 11.1139L11.7536 11.104L11.7414 11.0888C11.7333 11.0651 11.7245 11.0415 11.7151 11.0182L11.7116 11.0019L11.7058 10.9896L11.6988 10.9832H11.6918L11.6055 11.1244L11.5932 11.1367L11.5705 11.1466L11.5203 11.1588H11.4906L11.4678 11.1524L11.4608 11.1489L11.4515 11.139L11.4491 11.1332V11.1203L11.4608 10.9791L11.4515 10.9826L11.4264 10.9949C11.4034 11.0188 11.3811 11.0433 11.3593 11.0684L11.3307 11.104L11.2951 11.1337L11.2619 11.1588L11.2432 11.1693L11.2047 11.1752L11.189 11.1717L11.182 11.1693L11.1756 11.1623L11.1721 11.1524V11.1425L11.1756 11.1017L11.1855 11.0369L11.1791 10.999L11.1656 10.9768L11.1464 11.0054L11.1149 11.0468C11.0887 11.0754 11.0618 11.1034 11.0344 11.1308C11.0191 11.141 11.0041 11.1517 10.9895 11.1629L10.9545 11.1752L10.9475 11.1717H10.9376L10.9306 11.1658L10.9282 11.1623L10.9212 11.1524L10.9189 11.1425V11.1302L10.9154 11.1139L10.9189 10.9925C10.8606 11.0322 10.8016 11.0707 10.7421 11.1075L10.72 11.1174L10.6949 11.1302C10.671 11.1361 10.6476 11.1419 10.6243 11.1489H10.601L10.5794 11.146L10.5596 11.139L10.5695 11.1133L10.5887 11.0684L10.601 11.0497L10.615 11.0305L10.6272 11.0112L10.6599 10.9791L10.6955 10.954L10.7363 10.9278L10.7783 10.9085L10.8267 10.8928L10.8746 10.8805L10.9836 10.8613L11.0379 10.8543C11.1989 10.8449 11.3605 10.8438 11.5215 10.8449L11.6982 10.835L11.7531 10.8286L11.8546 10.8093L11.9036 10.7959L11.9491 10.7772L11.9911 10.758C12.0132 10.7405 12.036 10.723 12.0593 10.7066L12.0902 10.6705L12.057 10.6069L12.0832 10.6034L12.1083 10.5975L12.1346 10.5847L12.1561 10.5684L12.1655 10.5625L12.176 10.5526L12.183 10.5398L12.19 10.5304L12.1923 10.5176V10.4954L12.1853 10.4826L12.2401 10.4727L12.2985 10.4663L12.3597 10.4628H12.4233C12.5126 10.4663 12.6012 10.4715 12.6899 10.4785C12.8241 10.4949 12.9588 10.5077 13.0936 10.5205L13.2143 10.5269V10.5713L13.212 10.5911L13.205 10.6098L13.1991 10.629L13.1921 10.6448L13.1828 10.6576C13.1717 10.6705 13.1595 10.6833 13.1472 10.6956L13.1186 10.7142L13.0877 10.7271L13.0568 10.7341L13.0212 10.7405L12.953 10.7341L12.9174 10.7242L12.8865 10.7078L12.8532 10.6921L12.8281 10.6693L12.8031 10.6442V10.6991C12.7984 10.7347 12.7926 10.7697 12.7873 10.8053L12.7751 10.8385L12.7681 10.8519L12.7587 10.8613L12.7517 10.8712L12.7436 10.877ZM10.1664 10.5754L10.2393 10.6075C10.2539 10.5953 10.2689 10.5836 10.2842 10.5725L10.3128 10.5573L10.3385 10.5409L10.4347 10.5024L10.5176 10.4639L10.5596 10.4482L10.6307 10.4102L10.6593 10.3904C10.7316 10.3432 10.8046 10.2965 10.8775 10.2504L10.9411 10.2055L10.9895 10.1669C11.0373 10.1238 11.084 10.08 11.1306 10.0357L11.1499 10.0228L11.1721 10.01C11.1986 9.99657 11.2255 9.98373 11.2526 9.97149L11.3068 9.95282C11.4153 9.92306 11.5256 9.89972 11.6364 9.88222C11.7496 9.8688 11.8627 9.85363 11.9759 9.84079L12.1264 9.81512C12.1637 9.80462 12.2011 9.79528 12.239 9.78653L12.2775 9.7381L12.3393 9.671L12.3813 9.62958L12.428 9.59049L12.4828 9.54906L12.5464 9.50705L12.6432 9.44987C12.7126 9.41486 12.7815 9.37986 12.8503 9.34368C12.9728 9.2865 13.0936 9.22582 13.2137 9.16397L13.2709 9.12547L13.2866 9.07704L13.3094 9.02978L13.338 8.98135L13.4121 8.88216C13.4459 8.84599 13.4786 8.80981 13.5112 8.77247C13.5509 8.73396 13.5917 8.69662 13.6331 8.66045L13.695 8.60969L13.7259 8.58693L13.7591 8.56476C13.7825 8.55134 13.8058 8.5385 13.8297 8.52625L13.8653 8.50991L13.8997 8.49766L13.975 8.47782L14.0123 8.47549L14.0479 8.47199L14.0852 8.47549L14.1208 8.48132L14.1185 8.51983L14.1091 8.55776L14.0806 8.63828L14.0566 8.6797L14.0281 8.72171L13.9931 8.76605L13.9511 8.81098L13.9843 8.80748L14.0129 8.80106L14.0356 8.79406L14.0572 8.78473L14.0992 8.77189L14.1593 8.76547L14.1628 8.78823V8.8104L14.1593 8.83257L14.1535 8.85182L14.1441 8.87108L14.1307 8.89033L14.1185 8.9055L14.1027 8.92184C14.0587 8.96436 14.0137 9.00599 13.968 9.0467L14.0059 9.0502C14.0339 9.05895 14.0619 9.0677 14.0905 9.07529L14.1214 9.08229L14.0841 9.11146C14.0545 9.13126 14.0245 9.15052 13.9942 9.16923L13.8916 9.22699L13.8402 9.25908L13.7889 9.29467L13.7411 9.33318L13.7626 9.3361L13.7924 9.34893L13.8052 9.35243L13.8175 9.35885L13.828 9.36177L13.8373 9.35885L13.7737 9.39444C13.734 9.41311 13.6945 9.43237 13.6553 9.4522L13.6063 9.48138L13.597 9.4913L13.5911 9.50122L13.5841 9.51055L13.5865 9.52339L13.5935 9.53331L13.6057 9.54264L13.6174 9.55314L13.6127 9.5654L13.6057 9.5759L13.5935 9.58523L13.5818 9.59515L13.5509 9.61032L13.5136 9.62666L13.4406 9.65233L13.3951 9.67509L13.4587 9.73868L13.436 9.76086L13.4144 9.77719L13.3951 9.78711L13.3724 9.79645L13.3281 9.80287H13.2651L13.2721 9.83204L13.2814 9.86063L13.2948 9.92539C13.255 9.95632 13.2144 9.98609 13.1729 10.0147L13.0988 10.0625L13.0166 10.1103L12.9676 10.1331L12.9197 10.1553C12.8657 10.1763 12.8111 10.1955 12.7558 10.213L12.6316 10.2393L12.5633 10.2492C12.6374 10.2515 12.7115 10.2527 12.7856 10.2521L12.9676 10.2329L13.0475 10.2171L13.1181 10.1979C13.1647 10.1821 13.2102 10.1646 13.2557 10.1465L13.3444 10.1057L13.4319 10.0573L13.5141 10.0053L13.6016 9.95457L13.5491 9.92889L13.499 9.91314L13.4751 9.90205C13.457 9.8933 13.4389 9.88455 13.4202 9.87697L13.3905 9.86063L13.4156 9.84196L13.4465 9.82912L13.4797 9.81687C13.5182 9.80753 13.5573 9.79878 13.5958 9.79061C13.646 9.78536 13.6961 9.77894 13.7463 9.77194L13.8099 9.76552L13.8589 9.75327L13.8717 9.74627L13.8811 9.73635L13.8787 9.73285L13.8717 9.72643L13.8624 9.72293L13.8501 9.7171L13.8146 9.7101L13.7691 9.70368L13.7247 9.70018L13.6804 9.69376L13.6407 9.68384L13.6168 9.67392L13.9301 9.6039L13.9849 9.58757C14.0088 9.57882 14.0321 9.5689 14.0555 9.55898L14.0864 9.53914L14.0998 9.52689L14.0963 9.52397L14.0905 9.51697L14.0607 9.51055L14.0199 9.50705H13.9709C13.9376 9.50472 13.905 9.50238 13.8717 9.50122L13.8309 9.49421L13.8046 9.4878L13.8501 9.46913C13.9178 9.44812 13.9866 9.42887 14.0555 9.41078C14.0946 9.39736 14.1342 9.38394 14.1739 9.37227L14.2346 9.3466L14.2631 9.33085L14.2894 9.31509L14.2987 9.30517L14.3086 9.29234L14.318 9.283L14.3215 9.27308L14.318 9.26316L14.3086 9.25616L14.2987 9.25383H14.2101L14.1681 9.25616H14.1109L14.094 9.25383L14.0829 9.24683L14.0689 9.24041C14.1856 9.16339 14.3034 9.08696 14.4218 9.01227L14.514 8.94809C14.5388 8.92752 14.5631 8.90631 14.5869 8.8845L14.6155 8.85241L14.6417 8.82032L14.661 8.78531L14.6767 8.7503L14.6861 8.71121V8.66978H14.6645L14.6417 8.67328L14.5916 8.69195C14.5471 8.71991 14.502 8.74676 14.4562 8.77247L14.4311 8.78881L14.4014 8.80106L14.3728 8.81098L14.3466 8.8174L14.3215 8.8209H14.2917L14.2666 8.81098L14.3442 8.75322C14.4066 8.70012 14.4685 8.64644 14.5297 8.59277C14.5974 8.52806 14.6636 8.46172 14.7281 8.39381L14.8202 8.29112C14.8476 8.25494 14.8756 8.21993 14.9042 8.18493C14.927 8.15225 14.9497 8.119 14.9713 8.08574L14.9783 8.07349L14.9806 8.06357L14.9783 8.05015L14.9748 8.04081L14.9713 8.03031L14.962 8.02389L14.9521 8.01397L14.9427 8.01047L14.9305 8.00464L14.9165 8.00114H14.8914L14.8791 8.00464L14.8622 8.00697L14.8529 8.01747L14.8395 8.02739C14.7741 8.09274 14.7094 8.15925 14.6458 8.22635L14.5682 8.29987C14.5173 8.34428 14.466 8.38823 14.4142 8.43173C14.3899 8.44822 14.3652 8.46417 14.3401 8.47957L14.2696 8.51517L14.2911 8.49591C14.3145 8.47374 14.3372 8.45157 14.3594 8.42881C14.4416 8.33429 14.5204 8.23627 14.5962 8.13708L14.7444 7.92879L14.7841 7.85877L14.8237 7.79459L14.8558 7.73624L14.8809 7.6814L14.8966 7.63706L14.9001 7.6213V7.59563L14.8966 7.58571L14.885 7.56646L14.878 7.56004L14.8675 7.55712L14.8494 7.54662L14.8255 7.5402H14.7817L14.7695 7.5437L14.7601 7.54662L14.7467 7.55362L14.7374 7.56296L14.7111 7.58571C14.6824 7.62034 14.6546 7.65575 14.6277 7.6919C14.5636 7.79226 14.4959 7.89028 14.4259 7.98655L14.3448 8.08282L14.304 8.12483L14.2596 8.16334L14.3168 8.05657L14.4066 7.86811L14.465 7.73041L14.4901 7.65981L14.5344 7.51511C14.5455 7.46844 14.5554 7.42176 14.5641 7.3745C14.5682 7.33074 14.5717 7.28698 14.5746 7.24264L14.57 7.21055L14.5676 7.18196L14.5641 7.1522L14.5548 7.11486L14.5478 7.10436L14.5321 7.0886L14.5105 7.07927L14.4866 7.07227H14.465L14.4446 7.07577L14.4387 7.07927L14.4294 7.0816L14.4259 7.0886C14.3681 7.27064 14.3244 7.45618 14.2742 7.63997C14.2556 7.69132 14.2369 7.74266 14.2171 7.79401L14.1692 7.88678L14.1395 7.9282L14.1587 7.83602C14.1681 7.78234 14.1762 7.72924 14.1838 7.67557L14.1972 7.5437L14.2007 7.48886C14.199 7.461 14.1966 7.43318 14.1937 7.40542L14.1879 7.37333L14.1786 7.34766L14.1651 7.3284L14.1581 7.32199L14.1389 7.31557L14.1296 7.31207H14.1191L14.1097 7.31557L14.0835 7.32199L14.0584 7.33482C14.0386 7.43401 14.0146 7.53262 13.9878 7.63005C13.9496 7.75296 13.9048 7.87372 13.8536 7.9918C13.8191 8.06437 13.7825 8.13597 13.744 8.20652L13.6734 8.32846L13.597 8.4434C13.5457 8.51516 13.4926 8.58559 13.4377 8.65461C13.3841 8.71529 13.3292 8.77481 13.2738 8.83432C13.2161 8.89091 13.1571 8.94693 13.0971 9.00177C13.0352 9.05312 12.9728 9.10271 12.9092 9.15172C12.8317 9.20781 12.7523 9.26132 12.6712 9.31217L12.5301 9.39503L12.3055 9.4983L12.0745 9.58115L11.8831 9.6395L11.6848 9.68384L11.5856 9.70018L11.3826 9.72585L11.28 9.73227L11.2701 9.73577L11.2601 9.73868L11.2409 9.74919L11.2193 9.76436C11.1942 9.78626 11.1695 9.80863 11.1452 9.83146L11.0939 9.88338L10.9078 10.0911L10.8372 10.1617L10.7544 10.2253L10.7217 10.2475L10.6896 10.2673L10.6196 10.2994C10.5111 10.3437 10.4009 10.384 10.2918 10.4278L10.2632 10.4435L10.2376 10.4569L10.2189 10.4692L10.1833 10.5048L10.1734 10.5205L10.1664 10.5363L10.1641 10.559V10.5754" fill="#FFCC4D"/>
<path d="M11.3408 10.7187L11.3945 10.7257L11.4207 10.7356L11.4266 10.7386V10.7421H11.4207L11.4137 10.745L11.3624 10.7549H11.3216L11.1874 10.745L10.8473 10.7386C10.7575 10.7397 10.6676 10.7421 10.5778 10.745C10.4985 10.7508 10.4197 10.7572 10.3404 10.7642L10.2791 10.7742L10.2249 10.7864C10.2121 10.7911 10.1998 10.7957 10.187 10.7992L10.1706 10.8062L10.1578 10.8162L10.1636 10.7835L10.1776 10.7508L10.1327 10.7636L10.0942 10.7829L10.0791 10.7928L10.0656 10.8057L10.0557 10.8208L10.0534 10.8372L10.0441 10.815L10.0371 10.7952C10.0353 10.7813 10.033 10.7674 10.0301 10.7537C10.0336 10.7368 10.0371 10.7199 10.0394 10.703L10.0499 10.6866L10.0557 10.6738L10.0691 10.6586L10.0948 10.633L10.1298 10.6102L10.1695 10.588C10.1904 10.6003 10.2127 10.6099 10.236 10.6166C10.2589 10.6187 10.2821 10.6165 10.3042 10.6102C10.3398 10.6417 10.432 10.6353 10.4448 10.5781C10.4498 10.557 10.4498 10.535 10.4448 10.5139L10.4833 10.511L10.5282 10.504L10.6274 10.4783L10.6793 10.4684L10.7271 10.4562L10.7721 10.4497L10.81 10.4462L10.7942 10.4597L10.7108 10.5233L10.6793 10.5454L10.7201 10.5559L10.7557 10.5624L10.6799 10.6487L10.6601 10.6744L10.6851 10.6843L10.7108 10.6913L10.74 10.6977H10.7977L10.8549 10.6849L10.8776 10.6715L10.9039 10.6849L10.9296 10.6948C10.9459 10.6995 10.9628 10.7041 10.9797 10.7076C11.0194 10.7117 11.0591 10.7164 11.0993 10.7199H11.3408M11.0486 9.74434L11.02 9.8021L10.9873 9.8762C10.9705 9.90639 10.9548 9.93714 10.9401 9.96839L10.9237 9.98473L10.8858 9.95264L10.8438 9.92346L10.7989 9.90071L10.7516 9.88204L10.6484 9.85578L10.5976 9.84645C10.5422 9.84001 10.4865 9.83476 10.4308 9.83069C10.357 9.82954 10.2833 9.82603 10.2097 9.82019L10.1071 9.80794L10.0493 9.79802L9.99506 9.78577L9.9379 9.76593L9.88948 9.74084L9.8539 9.7175L9.7804 9.66324C9.67306 9.5623 9.5669 9.4602 9.45665 9.36159L9.39306 9.31725L9.3639 9.30441L9.33356 9.29508L9.27931 9.28282C9.24763 9.27151 9.21574 9.26082 9.18365 9.25073C9.15378 9.23633 9.12364 9.22252 9.09323 9.20931C9.04033 9.17653 8.98912 9.14109 8.93981 9.10312L8.90773 9.07336L8.84415 9.00976L8.7829 8.94266C8.68198 8.81955 8.5869 8.69236 8.48831 8.5675C8.44117 8.51743 8.39314 8.46822 8.34423 8.41988L8.30281 8.38196L8.26081 8.34695L8.16865 8.27985L8.15931 8.28277L8.14881 8.29269L8.1389 8.30553C8.13306 8.32011 8.1284 8.33528 8.12373 8.35045L8.12023 8.36329L8.0969 8.35279L8.07765 8.34287L8.05431 8.33295L8.03506 8.32653H7.99365L7.9709 8.33295L7.94873 8.34287C7.96623 8.36504 7.98315 8.38721 7.99948 8.40996L8.02806 8.45489L8.07998 8.55408L8.09865 8.60251L8.10565 8.62818L8.11265 8.64743L8.11556 8.66961V8.68828H7.9429L7.96798 8.72678C7.98723 8.75304 8.00765 8.77871 8.02806 8.8038L8.13423 8.90999L8.16981 8.93858L8.20248 8.96134C8.17473 8.96425 8.14691 8.96658 8.11906 8.96834L8.03506 8.97767L8.06365 9.00393C8.08873 9.02143 8.11323 9.03952 8.13773 9.05819L8.17915 9.08678L8.22115 9.11245L8.26256 9.13521L8.30106 9.14804L8.33665 9.15738L8.36523 9.1638L8.37456 9.1673L8.38156 9.1743L8.3839 9.17722V9.18947L8.37456 9.21573L8.37223 9.2344L8.36815 9.24723V9.25657L8.37223 9.2729L8.37456 9.28574L8.38156 9.29158L8.3909 9.29858L8.40315 9.30499L8.41948 9.3085L8.45215 9.32133L8.4679 9.32717L8.48073 9.33709L8.48365 9.34059V9.347L8.48073 9.35051L8.45506 9.36918L8.44223 9.38201L8.4294 9.39777V9.41119L8.42648 9.42402L8.4329 9.45845L8.5449 9.49695L8.57056 9.50279L8.59623 9.51329L8.61548 9.52321L8.63181 9.53313L8.52565 9.61656L8.55423 9.64224L8.58981 9.66149L8.63473 9.68366C8.66681 9.69533 8.6989 9.70583 8.73156 9.71634L8.7794 9.72567L8.8214 9.73559H8.85931L8.82373 9.76126L8.77881 9.78985L8.73098 9.81611L8.6954 9.84178L8.72748 9.86395C8.8249 9.91413 8.92465 9.96081 9.02615 10.0022C9.20348 10.0746 9.3849 10.1376 9.56748 10.1942C9.60831 10.2041 9.64856 10.2146 9.68881 10.2263L9.74015 10.2362L9.6369 10.2263C9.57272 10.218 9.50873 10.2083 9.44498 10.1971L9.35515 10.1779L9.1784 10.1271L9.09556 10.0979C8.8739 10.0116 8.65748 9.91238 8.43523 9.82836L8.45156 9.81902L8.49648 9.80269L8.52506 9.79627C8.56415 9.7846 8.60206 9.77176 8.64056 9.75776C8.56419 9.74618 8.48813 9.73256 8.41248 9.71692C8.37328 9.70417 8.3338 9.69231 8.29406 9.68133L8.27131 9.67141L8.25206 9.66149L8.23631 9.65099L8.22581 9.64165V9.63874L8.22931 9.63523L8.23923 9.63173L8.24856 9.62531L8.27423 9.6154L8.38623 9.58272L8.45098 9.56055C8.35823 9.54305 8.2649 9.52729 8.17156 9.51271L8.12665 9.50221L8.09106 9.48995L8.07823 9.48295L8.06598 9.47303L8.05548 9.4672L8.04906 9.45669L8.05898 9.45028L8.08756 9.44386C8.11731 9.43919 8.14765 9.43394 8.1774 9.42811L8.22873 9.42169C8.2579 9.41352 8.28648 9.40477 8.31506 9.39543L8.32848 9.3861L8.34131 9.37559L8.29056 9.35634L8.2579 9.35051L8.22581 9.3435L8.07881 9.32425L8.04031 9.31491L8.00473 9.30791L7.93415 9.28282L7.90148 9.26649L7.87523 9.24782L7.84956 9.22506L7.83031 9.19647L7.83731 9.19297L7.84956 9.18947H7.8659L7.89156 9.19297L8.01348 9.19939L8.08465 9.20639H8.1739L8.19898 9.20289L8.21881 9.19647L8.23165 9.18947C8.17129 9.16489 8.1114 9.13921 8.05198 9.11245C8.01266 9.0925 7.97298 9.07324 7.93298 9.05469L7.81165 8.99109L7.7539 8.9555C7.71832 8.93035 7.68313 8.90468 7.64831 8.87848L7.6034 8.83998L7.58356 8.8178L7.56373 8.79855L7.55148 8.7793L7.53806 8.75654L7.52523 8.73787L7.51823 8.7157L7.51298 8.67427H7.53456L7.56023 8.67719L7.5859 8.68769L7.61156 8.69703L7.66231 8.72912L7.72006 8.76121L7.74573 8.77755L7.77431 8.79272L7.8029 8.80555L7.82856 8.81547L7.85715 8.82247L7.88281 8.82539H7.91198L7.93706 8.81547L7.86123 8.75712C7.7984 8.70497 7.73637 8.65187 7.67515 8.59784C7.57362 8.50115 7.47612 8.40032 7.3829 8.29561L7.34206 8.24134L7.30006 8.19C7.27704 8.15706 7.25448 8.1238 7.2324 8.09023L7.22656 8.07739V8.05522L7.22948 8.0453L7.2324 8.03597L7.24231 8.02955L7.25165 8.01963L7.26215 8.01263L7.2744 8.00913L7.28723 8.00679H7.3129L7.32865 8.00913L7.34265 8.01263L7.3549 8.02255C7.42431 8.09139 7.49256 8.16083 7.55965 8.23143C7.63373 8.30261 7.71073 8.37146 7.79065 8.4368L7.86415 8.48406L7.90206 8.5039L7.93765 8.51616L7.91256 8.5004L7.84548 8.4333C7.76323 8.33878 7.68506 8.24076 7.60806 8.14157C7.57415 8.09498 7.5409 8.04791 7.50831 8.00037C7.47925 7.95391 7.4493 7.908 7.41848 7.86268C7.39405 7.82256 7.37051 7.7819 7.3479 7.74073C7.33489 7.70743 7.32127 7.67436 7.30706 7.64155L7.30298 7.62579V7.59954L7.30706 7.5902L7.31931 7.57095L7.32631 7.56395L7.33623 7.55811L7.37765 7.54469H7.42256L7.4354 7.54761L7.44473 7.55111L7.45756 7.55811L7.49315 7.5902L7.57656 7.69639C7.6419 7.79675 7.71073 7.89477 7.7819 7.99104L7.85773 8.08731L7.89973 8.12874L7.94465 8.16725C7.89355 8.07029 7.84454 7.97224 7.79765 7.87318C7.7778 7.82753 7.75854 7.78163 7.7399 7.73548L7.71423 7.66488C7.70067 7.61622 7.68569 7.56797 7.66931 7.52019L7.65356 7.44959L7.6419 7.37782L7.6349 7.31072L7.63198 7.24713L7.6349 7.21504L7.63898 7.18586L7.6419 7.15669L7.64831 7.1281L7.65473 7.1176L7.65823 7.10826L7.66756 7.09776L7.67398 7.09193L7.69615 7.08201L7.7189 7.07617H7.74106L7.76031 7.07967L7.76965 7.08201L7.77665 7.08551L7.78015 7.09251L7.78365 7.10184C7.83848 7.28097 7.8834 7.46301 7.93065 7.64446C7.94931 7.69523 7.96856 7.7454 7.98898 7.795L8.01115 7.84284L8.03681 7.88777L8.0654 7.93269L8.04673 7.83934C8.0394 7.78605 8.03085 7.73294 8.02106 7.68005C8.01465 7.61812 8.0094 7.55606 8.00531 7.49393L8.01173 7.4105L8.01815 7.37782L8.02806 7.35273L8.0409 7.33348L8.04731 7.32648L8.05665 7.32006L8.06598 7.31714H8.09515L8.1214 7.32648L8.14648 7.33931L8.1914 7.54119C8.20773 7.60245 8.22581 7.66372 8.24565 7.72381C8.27831 7.81542 8.3139 7.90644 8.35181 7.99629L8.39673 8.08906L8.4609 8.21159L8.5309 8.33295L8.60848 8.44847L8.69131 8.56342L8.7689 8.65969C8.82256 8.72037 8.87681 8.78046 8.93223 8.83939C8.98998 8.89599 9.0489 8.95142 9.10898 9.00568L9.20173 9.08328C9.2869 9.14979 9.3744 9.21281 9.46481 9.27232C9.5354 9.31433 9.60715 9.35517 9.67948 9.39426L9.89998 9.50045C10.012 9.5448 10.1251 9.58564 10.2395 9.62181C10.3515 9.65157 10.4652 9.67724 10.5796 9.69883C10.733 9.72334 10.8905 9.73792 11.0486 9.74434Z" fill="#FFCC4D"/>
<path d="M2.01698 13.7232C2.01698 13.7232 1.87873 13.8382 1.83206 13.7804C1.75681 13.6871 2.06365 13.2209 2.06365 13.0563C2.06365 12.7874 1.8834 12.7127 1.66173 12.6748C1.5124 12.6491 1.27031 12.6858 1.27031 12.6858C1.31581 12.7471 1.34556 12.7664 1.42256 12.7699C1.36951 12.7978 1.32526 12.8399 1.29477 12.8915C1.26428 12.9431 1.24874 13.0022 1.2499 13.0622C1.2499 13.2932 1.34556 13.3889 1.34556 13.6509C1.34556 13.7962 1.22656 13.9805 1.22656 13.9805C1.43656 13.9595 1.54156 13.7652 1.48206 13.6089C1.49814 13.6059 1.5147 13.6068 1.53034 13.6116C1.54598 13.6163 1.56024 13.6248 1.5719 13.6363C1.58706 13.5937 1.56315 13.5429 1.53048 13.5003C1.55673 13.4869 1.57598 13.4951 1.6174 13.5033C1.61331 13.4589 1.58648 13.4122 1.52173 13.3679C1.71073 13.4163 1.82681 13.2851 1.82681 13.1474C1.82681 13.0423 1.7539 12.9676 1.68215 12.9676C1.65497 12.9685 1.62855 12.9768 1.60573 12.9916C1.59231 12.9636 1.59931 12.9251 1.61273 12.8965C1.56081 12.9099 1.52756 12.9408 1.55148 13.0062C1.53369 13.0064 1.51615 13.0104 1.49998 13.0179C1.48381 13.0253 1.46937 13.036 1.45756 13.0493C1.46872 13.0633 1.48307 13.0745 1.49941 13.0818C1.51575 13.0891 1.53361 13.0924 1.55148 13.0913C1.52231 13.152 1.55498 13.1864 1.60223 13.2133C1.60223 13.2133 1.5719 13.0913 1.64948 13.0913C1.68448 13.0913 1.71598 13.1036 1.71598 13.1544C1.71598 13.1981 1.6769 13.26 1.58706 13.2565C1.49665 13.2524 1.42373 13.194 1.42373 13.0511C1.42373 12.9175 1.53048 12.8515 1.67106 12.8475C1.79823 12.8434 1.8939 12.9122 1.8939 13.0435C1.8939 13.2174 1.6419 13.6153 1.6419 13.7705C1.6419 13.8872 1.74631 13.9519 1.84898 13.9519C1.98198 13.9519 2.09398 13.8201 2.09398 13.8201L2.01698 13.7232ZM1.98781 10.5714C1.98781 10.2808 2.24915 10.1309 2.45448 10.1309C2.73098 10.1309 2.87856 10.2966 2.87856 10.5124C2.87856 10.6361 2.85581 10.7132 2.79923 10.8304L2.16515 12.1473C2.14194 12.2026 2.13176 12.2625 2.1354 12.3223C2.1354 12.4402 2.25031 12.5371 2.37048 12.54C2.47956 12.5429 2.59915 12.4379 2.59915 12.3183C2.59915 12.173 2.52448 12.1088 2.4469 12.1088C2.35181 12.1088 2.3139 12.1473 2.3139 12.2144C2.3139 12.2617 2.33665 12.2815 2.36873 12.2815C2.4504 12.2815 2.42765 12.1718 2.42765 12.1718C2.43851 12.1741 2.44875 12.1787 2.45764 12.1854C2.46652 12.192 2.47384 12.2005 2.47907 12.2103C2.4843 12.2201 2.48731 12.2309 2.4879 12.242C2.48849 12.2531 2.48664 12.2642 2.48248 12.2745C2.51303 12.2809 2.54066 12.2971 2.56123 12.3206C2.54022 12.343 2.51264 12.3581 2.48248 12.3638C2.50173 12.4268 2.47606 12.4577 2.42123 12.4711C2.43068 12.4499 2.43333 12.4262 2.42881 12.4034C2.3419 12.4279 2.2089 12.3894 2.2089 12.2389C2.2089 12.0895 2.31215 11.9641 2.5064 11.995C2.45973 11.974 2.43698 11.9291 2.43231 11.8777C2.46731 11.8923 2.5064 11.8941 2.5064 11.8941C2.48365 11.8544 2.45215 11.82 2.45331 11.7406C2.48948 11.7576 2.52273 11.7873 2.56881 11.7681C2.49648 11.6263 2.58515 11.4314 2.81148 11.3841C2.73465 11.4677 2.69089 11.5764 2.6884 11.6899C2.6884 12.0283 2.7829 12.0843 2.7829 12.3188C2.78133 12.3735 2.76689 12.4271 2.74073 12.4751C2.71458 12.5232 2.67746 12.5644 2.6324 12.5954V12.5913C2.69773 12.6088 2.74031 12.6421 2.76481 12.6858C2.61373 12.7284 2.39381 12.7278 2.27656 12.6818C2.22341 12.6741 2.17265 12.6546 2.12795 12.6248C2.08325 12.5951 2.04574 12.5557 2.01815 12.5096C1.98963 12.4439 1.97492 12.373 1.97492 12.3013C1.97492 12.2297 1.98963 12.1588 2.01815 12.093C2.10798 11.9057 2.53148 11.0078 2.66331 10.7248C2.69239 10.6648 2.70774 10.599 2.70823 10.5323C2.70823 10.3602 2.55015 10.2995 2.46031 10.2995C2.3524 10.2995 2.24273 10.3823 2.24273 10.4839C2.24273 10.5492 2.27831 10.5877 2.32848 10.5877C2.4504 10.5877 2.44281 10.4844 2.41831 10.4191C2.49356 10.4541 2.5379 10.5136 2.52565 10.5778C2.56881 10.5836 2.60965 10.604 2.64698 10.6461C2.61723 10.6846 2.58106 10.7126 2.52565 10.7132C2.55015 10.8123 2.48365 10.8544 2.41831 10.8771C2.43873 10.8048 2.45215 10.7202 2.32848 10.7202C2.23806 10.7202 2.1669 10.7044 2.12548 10.6455C2.12256 10.7242 2.11498 11.0335 2.11498 11.0335C2.11031 11.1502 2.27073 11.1467 2.37281 11.1122C2.33373 11.2464 2.25498 11.3194 2.07123 11.3007C2.09937 11.3115 2.1234 11.3309 2.13994 11.3562C2.15647 11.3814 2.16468 11.4112 2.1634 11.4413C2.1634 11.551 2.07473 11.6718 2.01698 11.708L1.98781 10.5714Z" fill="#FFCC4D"/>
<path d="M2.04505 10.5716C2.04505 10.281 1.78371 10.1311 1.57838 10.1311C1.30188 10.1311 1.1543 10.2968 1.1543 10.5127C1.1543 10.6364 1.17705 10.7134 1.23363 10.8307L1.86771 12.1475C1.89072 12.2029 1.9007 12.2628 1.89688 12.3226C1.89688 12.4404 1.78196 12.5373 1.66238 12.5402C1.55271 12.5431 1.43371 12.4381 1.43371 12.3185C1.43371 12.1732 1.50838 12.109 1.58596 12.109C1.68105 12.109 1.71896 12.1475 1.71896 12.2146C1.71896 12.2619 1.69621 12.2817 1.66413 12.2817C1.58246 12.2817 1.60521 12.172 1.60521 12.172C1.59435 12.1743 1.58411 12.1789 1.57522 12.1856C1.56634 12.1922 1.55902 12.2008 1.55379 12.2106C1.54856 12.2203 1.54555 12.2312 1.54496 12.2423C1.54437 12.2533 1.54622 12.2644 1.55038 12.2747C1.51983 12.2811 1.49219 12.2973 1.47163 12.3208C1.49264 12.3432 1.52022 12.3583 1.55038 12.364C1.53171 12.427 1.55738 12.4579 1.61221 12.4708C1.60276 12.4495 1.60011 12.4259 1.60463 12.4031C1.69155 12.4276 1.82455 12.3891 1.82455 12.2385C1.82455 12.0892 1.7213 11.9637 1.52763 11.9947C1.57371 11.9737 1.59705 11.9287 1.60113 11.8774C1.57761 11.8866 1.55282 11.8921 1.52763 11.8937C1.5498 11.854 1.5813 11.8196 1.58013 11.7403C1.54396 11.7572 1.5113 11.7869 1.46463 11.7677C1.53696 11.6259 1.4483 11.431 1.22196 11.3838C1.2988 11.4673 1.34255 11.576 1.34505 11.6895C1.34505 12.0279 1.25113 12.0839 1.25113 12.3185C1.25113 12.4165 1.30188 12.5233 1.40163 12.595V12.591C1.37417 12.5966 1.3482 12.6079 1.32538 12.6241C1.30257 12.6404 1.28344 12.6613 1.26921 12.6855C1.4203 12.7281 1.63963 12.7275 1.75746 12.6814C1.81061 12.6737 1.86138 12.6543 1.90608 12.6245C1.95078 12.5947 1.98828 12.5554 2.01588 12.5093C2.04439 12.4435 2.05911 12.3726 2.05911 12.301C2.05911 12.2293 2.04439 12.1584 2.01588 12.0927C1.92605 11.9054 1.50255 11.0074 1.37071 10.7245C1.34163 10.6644 1.32629 10.5986 1.3258 10.5319C1.3258 10.3598 1.48388 10.2991 1.57371 10.2991C1.68163 10.2991 1.7913 10.382 1.7913 10.4835C1.7913 10.5488 1.75571 10.5874 1.70555 10.5874C1.58363 10.5874 1.59121 10.4841 1.61513 10.4187C1.53988 10.4537 1.49555 10.5133 1.5078 10.5774C1.46038 10.5846 1.41723 10.6089 1.38646 10.6457C1.41621 10.6842 1.45238 10.7122 1.5078 10.7128C1.4833 10.812 1.5498 10.854 1.61513 10.8767C1.59471 10.8044 1.5813 10.7198 1.70555 10.7198C1.79596 10.7198 1.86713 10.704 1.90855 10.6451L1.91905 11.0331C1.92371 11.1498 1.76271 11.1463 1.66063 11.1119C1.69913 11.2455 1.77846 11.3184 1.96163 11.2998C1.93349 11.3106 1.90946 11.33 1.89292 11.3552C1.87639 11.3805 1.86818 11.4102 1.86946 11.4404C1.86946 11.5501 1.95755 11.6708 2.01588 11.707L2.04505 10.5716ZM2.01646 13.7235C2.01646 13.7235 2.15471 13.8384 2.20138 13.7806C2.27663 13.6873 1.9698 13.2211 1.9698 13.0566C1.9698 12.7876 2.15005 12.7129 2.37171 12.675C2.52105 12.6493 2.76371 12.6861 2.76371 12.6861C2.71763 12.7473 2.68846 12.7666 2.61146 12.7701C2.66447 12.798 2.70868 12.8402 2.73917 12.8918C2.76966 12.9434 2.78522 13.0025 2.78413 13.0624C2.78413 13.2934 2.68846 13.3891 2.68846 13.6511C2.68846 13.7964 2.80746 13.9808 2.80746 13.9808C2.59746 13.9598 2.49246 13.7655 2.55196 13.6091C2.53589 13.6062 2.51935 13.6072 2.50373 13.6119C2.4881 13.6167 2.47384 13.6251 2.46213 13.6365C2.44696 13.5939 2.47146 13.5432 2.50355 13.5006C2.4773 13.4872 2.45805 13.4953 2.41663 13.5035C2.42071 13.4591 2.44696 13.4125 2.5123 13.3681C2.3233 13.4166 2.20721 13.2853 2.20721 13.1476C2.20721 13.0426 2.28013 12.9679 2.35188 12.9679C2.37521 12.9679 2.40905 12.9778 2.4283 12.9918C2.44171 12.9638 2.43471 12.9253 2.42071 12.8967C2.47321 12.9101 2.50588 12.941 2.48255 13.0064C2.50033 13.0067 2.51786 13.0107 2.53402 13.0181C2.55018 13.0256 2.56463 13.0363 2.57646 13.0496C2.5653 13.0636 2.55095 13.0747 2.53461 13.082C2.51827 13.0893 2.50042 13.0926 2.48255 13.0916C2.51171 13.1522 2.47905 13.1867 2.4318 13.2135C2.4318 13.2135 2.46213 13.0916 2.38455 13.0916C2.34955 13.0916 2.31805 13.1038 2.31805 13.1546C2.31805 13.1983 2.35713 13.2602 2.44696 13.2567C2.5368 13.2526 2.60971 13.1943 2.60971 13.0513C2.60971 12.9177 2.50296 12.8518 2.36238 12.8477C2.23521 12.8436 2.13955 12.9124 2.13955 13.0437C2.13955 13.2176 2.39155 13.6155 2.39155 13.7707C2.39155 13.8874 2.28713 13.9522 2.18446 13.9522C2.05146 13.9522 1.93946 13.8203 1.93946 13.8203L2.01646 13.7235ZM1.9873 5.47039C1.9873 5.17866 2.24863 5.0293 2.45396 5.0293C2.73046 5.0293 2.87805 5.195 2.87805 5.41146C2.87805 5.53457 2.8553 5.61159 2.79871 5.72887L2.16463 7.04632C2.14139 7.1014 2.13121 7.16111 2.13488 7.22078C2.13488 7.33922 2.2498 7.43549 2.36996 7.43899C2.47905 7.44133 2.59863 7.3363 2.59863 7.21728C2.59863 7.07258 2.52396 7.00781 2.44638 7.00781C2.3513 7.00781 2.31338 7.04691 2.31338 7.114C2.31338 7.1601 2.33613 7.18052 2.36821 7.18052C2.44988 7.18052 2.42713 7.07083 2.42713 7.07083C2.4379 7.07304 2.44806 7.07758 2.45689 7.08414C2.46572 7.0907 2.47301 7.09911 2.47824 7.10879C2.48346 7.11847 2.48651 7.12917 2.48715 7.14016C2.48779 7.15114 2.48602 7.16213 2.48196 7.17235C2.51254 7.17905 2.54015 7.19542 2.56071 7.21903C2.53962 7.24141 2.5121 7.25669 2.48196 7.26279C2.50121 7.3258 2.47555 7.35614 2.42071 7.36956C2.4302 7.34833 2.43285 7.32468 2.4283 7.30188C2.34138 7.32639 2.20838 7.28788 2.20838 7.13734C2.20838 6.98856 2.31163 6.86312 2.50588 6.89404C2.45921 6.87187 2.43646 6.82694 2.4318 6.77676C2.4668 6.79077 2.50588 6.79193 2.50588 6.79193C2.48313 6.75226 2.45163 6.71783 2.4528 6.63907C2.48896 6.6554 2.52221 6.68574 2.5683 6.66649C2.49596 6.52413 2.58463 6.32867 2.81096 6.28257C2.73431 6.36624 2.69059 6.47486 2.68788 6.58831C2.68788 6.92613 2.78238 6.98273 2.78238 7.21786C2.78238 7.31588 2.73163 7.42207 2.63188 7.49442V7.49034C2.69605 7.50784 2.73805 7.53993 2.76313 7.58427C2.61205 7.62745 2.39213 7.62628 2.27488 7.58019C2.22177 7.57237 2.17105 7.55288 2.12637 7.52312C2.08169 7.49336 2.04415 7.45407 2.01646 7.40807C1.98795 7.34254 1.97323 7.27183 1.97323 7.20036C1.97323 7.12888 1.98795 7.05818 2.01646 6.99264C2.1063 6.80477 2.5298 5.90682 2.66163 5.62384C2.6904 5.56369 2.70573 5.49798 2.70655 5.4313C2.70655 5.2586 2.54846 5.19792 2.45863 5.19792C2.35071 5.19792 2.24105 5.28019 2.24105 5.38171C2.24105 5.44706 2.27663 5.48615 2.3268 5.48615C2.44871 5.48615 2.44113 5.38229 2.41663 5.31753C2.49188 5.35137 2.53621 5.41205 2.52396 5.47623C2.56713 5.48206 2.60796 5.5019 2.6453 5.54508C2.61555 5.58242 2.57938 5.61042 2.52396 5.61159C2.54846 5.71136 2.48196 5.75337 2.41663 5.77613C2.43705 5.70378 2.45046 5.61976 2.3268 5.61976C2.23638 5.61976 2.16521 5.60401 2.1238 5.54566C2.12088 5.62384 2.1133 5.93366 2.1133 5.93366C2.10863 6.04977 2.26905 6.04685 2.37113 6.01185C2.33321 6.14604 2.25446 6.21839 2.07071 6.19972C2.0989 6.21067 2.12295 6.23018 2.13949 6.2555C2.15602 6.28083 2.1642 6.3107 2.16288 6.34092C2.16288 6.45003 2.07421 6.57139 2.01646 6.60698L1.9873 5.47039Z" fill="#FFCC4D"/>
<path d="M2.04505 5.47039C2.04505 5.17866 1.78371 5.0293 1.57838 5.0293C1.30188 5.0293 1.1543 5.195 1.1543 5.41146C1.1543 5.53457 1.17705 5.61159 1.23363 5.72887L1.86771 7.04632C1.88988 7.09242 1.89688 7.14435 1.89688 7.22078C1.89688 7.33922 1.78196 7.43549 1.66238 7.43899C1.55271 7.44133 1.43371 7.3363 1.43371 7.21728C1.43371 7.07258 1.50838 7.00781 1.58596 7.00781C1.68105 7.00781 1.71896 7.04691 1.71896 7.114C1.71896 7.1601 1.69621 7.18052 1.66413 7.18052C1.58246 7.18052 1.60521 7.07083 1.60521 7.07083C1.59439 7.07294 1.58416 7.07743 1.57528 7.08396C1.56639 7.0905 1.55906 7.09892 1.55382 7.10863C1.54857 7.11834 1.54555 7.12909 1.54495 7.14011C1.54436 7.15112 1.54621 7.16214 1.55038 7.17235C1.5198 7.17905 1.49219 7.19542 1.47163 7.21903C1.49273 7.24141 1.52024 7.25669 1.55038 7.26279C1.53171 7.3258 1.5568 7.35614 1.61163 7.36956C1.60214 7.34833 1.59949 7.32468 1.60405 7.30188C1.69096 7.32639 1.82396 7.28788 1.82396 7.13734C1.82396 6.98856 1.72071 6.86312 1.52705 6.89404C1.57313 6.87187 1.59646 6.82694 1.60055 6.77676C1.56555 6.79077 1.52705 6.79193 1.52705 6.79193C1.54921 6.75226 1.58071 6.71783 1.57955 6.63907C1.54338 6.6554 1.51071 6.68574 1.46405 6.66649C1.53638 6.52413 1.44771 6.32867 1.22138 6.28257C1.29803 6.36624 1.34176 6.47486 1.34446 6.58831C1.34446 6.92613 1.25055 6.98273 1.25055 7.21786C1.25055 7.31588 1.3013 7.42207 1.40105 7.49442V7.49034C1.3363 7.50784 1.29371 7.53993 1.2698 7.58427C1.42088 7.62745 1.64021 7.62628 1.75805 7.58019C1.81116 7.57237 1.86187 7.55288 1.90656 7.52312C1.95124 7.49336 1.98877 7.45407 2.01646 7.40807C2.04498 7.34254 2.0597 7.27183 2.0597 7.20036C2.0597 7.12888 2.04498 7.05818 2.01646 6.99264C1.92663 6.80477 1.50313 5.90682 1.3713 5.62384C1.34226 5.56399 1.32692 5.49841 1.32638 5.43189C1.32638 5.25918 1.48446 5.1985 1.5743 5.1985C1.68221 5.1985 1.79188 5.28077 1.79188 5.38229C1.79188 5.44764 1.7563 5.48673 1.70613 5.48673C1.58421 5.48673 1.5918 5.38287 1.61571 5.31811C1.54046 5.35195 1.49613 5.41263 1.50838 5.47681C1.46075 5.48378 1.41746 5.50834 1.38705 5.54566C1.4168 5.583 1.45296 5.61101 1.50838 5.61217C1.48388 5.71195 1.55038 5.75396 1.61571 5.77671C1.5953 5.70436 1.58188 5.62034 1.70613 5.62034C1.79655 5.62034 1.86771 5.60459 1.90913 5.54624L1.91905 5.93308C1.92371 6.04919 1.76271 6.04627 1.66063 6.01126C1.69913 6.14546 1.77846 6.21781 1.96163 6.19972C1.93344 6.21067 1.90939 6.23018 1.89286 6.2555C1.87633 6.28083 1.86814 6.3107 1.86946 6.34092C1.86946 6.45003 1.95755 6.57139 2.01588 6.60698L2.04505 5.47039Z" fill="#FFCC4D"/>
<path d="M2.0451 4.59622C2.0451 4.88737 1.78377 5.03732 1.57843 5.03732C1.30193 5.03732 1.15435 4.87162 1.15435 4.65457C1.15435 4.53204 1.1771 4.45503 1.23368 4.33717L1.86777 3.01971C1.89077 2.96458 1.90075 2.90488 1.89693 2.84526C1.89693 2.7274 1.78202 2.63054 1.66243 2.62763C1.55277 2.62529 1.43377 2.72973 1.43377 2.84934C1.43377 2.99462 1.50843 3.0588 1.58602 3.0588C1.6811 3.0588 1.71902 3.01971 1.71902 2.95261C1.71902 2.90594 1.69627 2.8861 1.66418 2.8861C1.58252 2.8861 1.60527 2.99579 1.60527 2.99579C1.59442 2.9936 1.58419 2.98905 1.5753 2.98245C1.56642 2.97585 1.55909 2.96738 1.55386 2.95763C1.54862 2.94788 1.5456 2.93709 1.54501 2.92604C1.54442 2.91498 1.54627 2.90394 1.55043 2.89368C1.51972 2.88768 1.49196 2.87143 1.47168 2.84759C1.49297 2.82558 1.52043 2.81052 1.55043 2.80441C1.53177 2.7414 1.55743 2.71106 1.61227 2.69764C1.60278 2.71887 1.60013 2.74252 1.60468 2.76532C1.6916 2.74082 1.8246 2.78049 1.8246 2.92986C1.8246 3.07864 1.72135 3.20408 1.52768 3.17316C1.57377 3.19533 1.5971 3.24026 1.60118 3.29044C1.57751 3.28196 1.55277 3.27686 1.52768 3.27527C1.54985 3.31494 1.58135 3.34937 1.58018 3.42813C1.54402 3.4118 1.51135 3.38146 1.46468 3.40071C1.53702 3.54308 1.44835 3.73854 1.22202 3.78521C1.29866 3.70131 1.34238 3.59251 1.3451 3.4789C1.3451 3.14165 1.25118 3.08448 1.25118 2.84992C1.25118 2.7519 1.30193 2.64571 1.40168 2.57336V2.57745C1.37429 2.57167 1.34841 2.56022 1.32571 2.54384C1.303 2.52747 1.28398 2.50652 1.26985 2.48234C1.42093 2.43975 1.64027 2.44033 1.7581 2.48701C1.8113 2.49478 1.8621 2.51431 1.9068 2.54418C1.9515 2.57406 1.98898 2.61353 2.01652 2.65972C2.04507 2.72524 2.05981 2.79595 2.05981 2.86743C2.05981 2.93891 2.04507 3.00962 2.01652 3.07514C1.92668 3.26301 1.50318 4.16096 1.37135 4.44336C1.34226 4.5032 1.32691 4.56878 1.32643 4.63532C1.32643 4.8086 1.48452 4.8687 1.57435 4.8687C1.68227 4.8687 1.79193 4.78643 1.79193 4.68433C1.79193 4.61956 1.75635 4.57989 1.70618 4.57989C1.58427 4.57989 1.59185 4.68316 1.61577 4.74851C1.54052 4.71467 1.49618 4.65399 1.50843 4.58981C1.46088 4.58262 1.41766 4.5581 1.3871 4.52096C1.41685 4.48362 1.45302 4.45503 1.50843 4.45444C1.48393 4.35525 1.55043 4.31266 1.61577 4.28932C1.59535 4.36226 1.58193 4.44686 1.70618 4.44686C1.7966 4.44686 1.86777 4.46203 1.90918 4.52096L1.91968 4.13237C1.92435 4.01626 1.76335 4.01976 1.66127 4.05419C1.69977 3.91999 1.7791 3.84764 1.96227 3.86573C1.93408 3.85478 1.91003 3.83527 1.89349 3.80995C1.87696 3.78462 1.86878 3.75475 1.8701 3.72453C1.8701 3.61543 1.95818 3.49407 2.01652 3.45847L2.0451 4.59622ZM2.0451 9.69801C2.0451 9.98916 1.78377 10.1385 1.57843 10.1385C1.30193 10.1385 1.15435 9.97341 1.15435 9.75694C1.15294 9.64606 1.18027 9.53671 1.23368 9.43954L1.86777 8.12208C1.89077 8.06695 1.90075 8.00725 1.89693 7.94763C1.89693 7.82918 1.78202 7.73291 1.66243 7.73C1.55277 7.72708 1.43377 7.8321 1.43377 7.95113C1.43377 8.09583 1.50843 8.16059 1.58602 8.16059C1.6811 8.16059 1.71902 8.1215 1.71902 8.0544C1.71902 8.00831 1.69627 7.98847 1.66418 7.98847C1.58252 7.98847 1.60527 8.09816 1.60527 8.09816C1.59447 8.09588 1.5843 8.09127 1.57547 8.08465C1.56665 8.07803 1.55937 8.06956 1.55415 8.05984C1.54892 8.05012 1.54589 8.03938 1.54525 8.02836C1.5446 8.01734 1.54637 8.00632 1.55043 7.99605C1.51966 7.98985 1.4919 7.97339 1.47168 7.94938C1.49283 7.92718 1.52035 7.9121 1.55043 7.9062C1.53177 7.8426 1.55685 7.81226 1.61168 7.79884C1.60219 7.82007 1.59954 7.84373 1.6041 7.86653C1.69102 7.84202 1.82402 7.88111 1.82402 8.03106C1.82402 8.17985 1.72077 8.30471 1.5271 8.27437C1.57318 8.29712 1.59652 8.34146 1.6006 8.39223C1.5656 8.37881 1.5271 8.37647 1.5271 8.37647C1.54927 8.41615 1.58077 8.45116 1.5796 8.52934C1.54343 8.513 1.51077 8.48266 1.4641 8.50192C1.53643 8.6437 1.44777 8.84032 1.22143 8.88583C1.29817 8.80223 1.34192 8.69357 1.34452 8.5801C1.34452 8.24344 1.2506 8.18568 1.2506 7.95113C1.2506 7.85252 1.30135 7.74633 1.4011 7.67457V7.67807C1.33635 7.66115 1.29377 7.62906 1.26985 7.58413C1.42093 7.54154 1.64027 7.54212 1.7581 7.5888C1.81121 7.59662 1.86193 7.61611 1.90661 7.64587C1.95129 7.67563 1.98883 7.71492 2.01652 7.76092C2.04503 7.82645 2.05975 7.89716 2.05975 7.96863C2.05975 8.0401 2.04503 8.11081 2.01652 8.17634C1.92668 8.36422 1.50318 9.26217 1.37135 9.54515C1.34218 9.60496 1.32683 9.67056 1.32643 9.7371C1.32643 9.90981 1.48452 9.96991 1.57435 9.96991C1.68227 9.96991 1.79193 9.88764 1.79193 9.78553C1.79193 9.72193 1.75635 9.68226 1.70618 9.68226C1.58427 9.68226 1.59185 9.78553 1.61577 9.8503C1.54052 9.81646 1.49618 9.75519 1.50843 9.69159C1.46083 9.68494 1.4175 9.66056 1.3871 9.62333C1.40093 9.60369 1.41903 9.58745 1.44005 9.57582C1.46107 9.5642 1.48445 9.5575 1.50843 9.55623C1.48393 9.45704 1.55043 9.41562 1.61577 9.39228C1.59535 9.46521 1.58193 9.54923 1.70618 9.54923C1.7966 9.54923 1.86777 9.5644 1.90918 9.62391L1.91968 9.23533C1.92435 9.1198 1.76335 9.12272 1.66127 9.15714C1.69977 9.02353 1.7791 8.95118 1.96227 8.96927C1.93408 8.95832 1.91003 8.93881 1.89349 8.91349C1.87696 8.88816 1.86878 8.85829 1.8701 8.82807C1.8701 8.71896 1.95818 8.59819 2.01652 8.56201L2.0451 9.69801Z" fill="#FFCC4D"/>
<path d="M1.98689 9.69787C1.98689 9.98902 2.24823 10.1384 2.45356 10.1384C2.73006 10.1384 2.87764 9.97326 2.87764 9.7568C2.87906 9.64592 2.85172 9.53657 2.79831 9.4394L2.16423 8.12194C2.14099 8.06686 2.1308 8.00715 2.13448 7.94748C2.13448 7.82904 2.24939 7.73277 2.36956 7.72985C2.47864 7.72694 2.59823 7.83196 2.59823 7.95099C2.59823 8.09568 2.52356 8.16045 2.44598 8.16045C2.35089 8.16045 2.31298 8.12136 2.31298 8.05426C2.31298 8.00816 2.33573 7.98833 2.36781 7.98833C2.44948 7.98833 2.42673 8.09802 2.42673 8.09802C2.43752 8.09574 2.44769 8.09112 2.45652 8.08451C2.46535 8.07789 2.47263 8.06942 2.47785 8.0597C2.48307 8.04998 2.48611 8.03923 2.48675 8.02822C2.48739 8.0172 2.48562 8.00617 2.48156 7.99591C2.51233 7.98971 2.54009 7.97325 2.56031 7.94923C2.53916 7.92704 2.51164 7.91196 2.48156 7.90606C2.50081 7.84246 2.47514 7.81212 2.42031 7.7987C2.43139 7.82321 2.43139 7.84538 2.42789 7.86638C2.34098 7.84188 2.20798 7.88097 2.20798 8.03092C2.20798 8.1797 2.31123 8.30456 2.50548 8.27422C2.45881 8.29698 2.43606 8.34132 2.43139 8.39208C2.46639 8.37866 2.50548 8.37633 2.50548 8.37633C2.48273 8.416 2.45123 8.45101 2.45239 8.5292C2.48856 8.51286 2.52181 8.48252 2.56789 8.50177C2.49556 8.64355 2.58423 8.84018 2.81056 8.88569C2.73382 8.80208 2.69008 8.69343 2.68748 8.57996C2.68748 8.2433 2.78198 8.18554 2.78198 7.95099C2.7805 7.89628 2.7661 7.84269 2.73994 7.79462C2.71378 7.74655 2.67661 7.70536 2.63148 7.67443V7.67793C2.65896 7.67239 2.68497 7.66111 2.70779 7.64482C2.73061 7.62853 2.74973 7.6076 2.76389 7.58341C2.61281 7.54081 2.39289 7.5414 2.27564 7.58807C2.22253 7.59589 2.17182 7.61538 2.12713 7.64514C2.08245 7.6749 2.04492 7.71419 2.01723 7.76019C1.98871 7.82573 1.97399 7.89643 1.97399 7.96791C1.97399 8.03938 1.98871 8.11008 2.01723 8.17562C2.10706 8.36349 2.53056 9.26144 2.66239 9.54442C2.69039 9.60393 2.70731 9.66695 2.70731 9.73638C2.70731 9.90908 2.54923 9.96918 2.45939 9.96918C2.35148 9.96918 2.24181 9.88691 2.24181 9.7848C2.24181 9.72121 2.27739 9.68153 2.32756 9.68153C2.44948 9.68153 2.44189 9.7848 2.41739 9.84957C2.49264 9.81573 2.53698 9.75447 2.52473 9.69087C2.5724 9.68444 2.61581 9.66002 2.64606 9.6226C2.63223 9.60296 2.61413 9.58672 2.59311 9.5751C2.57209 9.56347 2.54871 9.55678 2.52473 9.5555C2.54923 9.45632 2.48273 9.41489 2.41739 9.39155C2.43781 9.46448 2.45123 9.5485 2.32756 9.5485C2.23714 9.5485 2.16598 9.56367 2.12456 9.62319C2.12164 9.545 2.11406 9.2346 2.11406 9.2346C2.10939 9.11908 2.26981 9.12199 2.37189 9.15642C2.33281 9.0228 2.25406 8.95045 2.07031 8.96854C2.0985 8.95759 2.12255 8.93809 2.13908 8.91276C2.15561 8.88743 2.1638 8.85756 2.16248 8.82734C2.16248 8.71824 2.07381 8.59746 2.01606 8.56129L1.98689 9.69787ZM2.01606 1.44539C2.01606 1.44539 2.15431 1.32928 2.20098 1.38704C2.27623 1.48098 1.96939 1.94717 1.96939 2.1117C1.96939 2.38126 2.14964 2.45419 2.37131 2.4927C2.52064 2.51896 2.76331 2.4822 2.76331 2.4822C2.71664 2.42094 2.68748 2.40285 2.61048 2.39818C2.66353 2.37057 2.7078 2.32868 2.73831 2.27723C2.76882 2.22579 2.78435 2.16684 2.78314 2.10704C2.78314 1.87482 2.68748 1.77913 2.68748 1.51774C2.68748 1.37246 2.80648 1.1875 2.80648 1.1875C2.59648 1.20909 2.49148 1.40338 2.55098 1.55916C2.53499 1.56212 2.51853 1.56117 2.50299 1.5564C2.48745 1.55162 2.4733 1.54316 2.46173 1.53174C2.44656 1.57492 2.47106 1.6251 2.50314 1.66827C2.47689 1.68228 2.45764 1.67352 2.41623 1.66477C2.42031 1.7097 2.44656 1.75638 2.51189 1.80072C2.32231 1.75171 2.20623 1.88357 2.20623 2.02185C2.20623 2.12629 2.27914 2.20039 2.35089 2.20039C2.37423 2.20039 2.40806 2.19105 2.42731 2.17647C2.44073 2.20506 2.43373 2.24357 2.41973 2.27215C2.47223 2.25874 2.50489 2.22723 2.48156 2.16246C2.51733 2.161 2.55108 2.14549 2.57548 2.11929C2.56419 2.10524 2.54975 2.09407 2.53333 2.08667C2.51691 2.07926 2.49897 2.07585 2.48098 2.0767C2.51014 2.01602 2.47748 1.98217 2.43023 1.95534C2.43023 1.95534 2.46056 2.0767 2.38298 2.0767C2.34798 2.0767 2.31648 2.06503 2.31648 2.01427C2.31648 1.96992 2.35556 1.90808 2.44539 1.91216C2.53523 1.91566 2.60814 1.97401 2.60814 2.11812C2.60814 2.25057 2.50139 2.31591 2.36081 2.32058C2.23423 2.32408 2.13856 2.25523 2.13856 2.12454C2.13856 1.95008 2.39056 1.55333 2.39056 1.39755C2.39056 1.28085 2.28614 1.21551 2.18348 1.21551C2.05048 1.21551 1.93848 1.34737 1.93848 1.34737L2.01606 1.44539Z" fill="#FFCC4D"/>
<path d="M2.01659 1.44539C2.01659 1.44539 1.87834 1.32928 1.83167 1.38704C1.75584 1.48156 2.06325 1.94775 2.06325 2.11229C2.06325 2.38185 1.883 2.45478 1.66134 2.49329C1.512 2.51896 1.26992 2.4822 1.26992 2.4822C1.31542 2.42094 1.34517 2.40285 1.42217 2.39818C1.36897 2.37071 1.32453 2.32886 1.29391 2.2774C1.26328 2.22593 1.2477 2.16691 1.24892 2.10704C1.24892 1.87482 1.34459 1.77913 1.34459 1.51774C1.34459 1.37246 1.22559 1.1875 1.22559 1.1875C1.43559 1.20909 1.54059 1.40338 1.48109 1.55916C1.49716 1.56202 1.51368 1.56103 1.5293 1.55626C1.54492 1.5515 1.55918 1.54309 1.57092 1.53174C1.58609 1.57492 1.56217 1.6251 1.5295 1.66827C1.55517 1.68228 1.57442 1.67352 1.61642 1.66477C1.61234 1.7097 1.5855 1.75638 1.52075 1.80072C1.70975 1.75171 1.82584 1.88357 1.82584 2.02185C1.82584 2.12629 1.75292 2.20039 1.68117 2.20039C1.65395 2.1998 1.62745 2.1915 1.60475 2.17647C1.59192 2.20564 1.59892 2.24357 1.61234 2.27215C1.56042 2.25874 1.52775 2.22723 1.55109 2.16305C1.53335 2.16242 1.51592 2.15828 1.4998 2.15087C1.48368 2.14346 1.46919 2.13292 1.45717 2.11987C1.46827 2.10573 1.48258 2.09444 1.49891 2.08693C1.51524 2.07942 1.53313 2.07591 1.55109 2.0767C1.52192 2.01602 1.55459 1.98217 1.60184 1.95534C1.60184 1.95534 1.5715 2.0767 1.64909 2.0767C1.68409 2.0767 1.71559 2.06503 1.71559 2.01427C1.71559 1.96992 1.6765 1.90808 1.58667 1.91216C1.49625 1.91566 1.42334 1.97401 1.42334 2.11754C1.42334 2.24998 1.53009 2.31533 1.67067 2.32C1.79784 2.3235 1.8935 2.25523 1.8935 2.12396C1.8935 1.9495 1.6415 1.55275 1.6415 1.39696C1.6415 1.28027 1.74592 1.21492 1.84859 1.21492C1.98159 1.21492 2.09359 1.34678 2.09359 1.34678L2.01659 1.44539ZM1.98742 4.59608C1.98742 4.88723 2.24875 5.03718 2.45409 5.03718C2.73059 5.03718 2.87817 4.87148 2.87817 4.65443C2.87817 4.5319 2.85542 4.45488 2.79884 4.33703L2.16475 3.01957C2.14192 2.96459 2.13194 2.90512 2.13559 2.8457C2.13559 2.72784 2.2505 2.63098 2.37067 2.62807C2.47975 2.62573 2.59934 2.73017 2.59934 2.84978C2.59934 2.99506 2.52467 3.05924 2.44709 3.05924C2.352 3.05924 2.31409 3.02015 2.31409 2.95305C2.31409 2.90638 2.33684 2.88654 2.36892 2.88654C2.45059 2.88654 2.42784 2.99623 2.42784 2.99623C2.43863 2.99395 2.4488 2.98934 2.45763 2.98272C2.46646 2.9761 2.47374 2.96764 2.47896 2.95791C2.48418 2.94819 2.48721 2.93745 2.48786 2.92643C2.4885 2.91541 2.48673 2.90439 2.48267 2.89412C2.51316 2.88763 2.54065 2.87121 2.56084 2.84745C2.53939 2.82533 2.51172 2.81027 2.4815 2.80427C2.50075 2.74126 2.47509 2.71092 2.42025 2.6975C2.43134 2.722 2.43134 2.74418 2.42784 2.76518C2.34092 2.74067 2.20792 2.77977 2.20792 2.92972C2.20792 3.0785 2.31117 3.20394 2.50542 3.17302C2.45875 3.19519 2.436 3.24012 2.43134 3.2903C2.4552 3.2818 2.48014 3.27669 2.50542 3.27513C2.48267 3.3148 2.45117 3.34922 2.45234 3.42799C2.4885 3.41166 2.52175 3.38132 2.56784 3.40057C2.4955 3.54293 2.58417 3.73839 2.8105 3.78507C2.73386 3.70117 2.69014 3.59237 2.68742 3.47875C2.68742 3.14151 2.78192 3.08433 2.78192 2.84978C2.78031 2.7951 2.76584 2.74157 2.7397 2.69352C2.71355 2.64547 2.67646 2.60426 2.63142 2.57322V2.57731C2.65885 2.57143 2.68477 2.55995 2.70756 2.54359C2.73035 2.52722 2.74951 2.50632 2.76384 2.4822C2.61217 2.44019 2.39225 2.44078 2.27442 2.48745C2.22131 2.49503 2.17058 2.51443 2.12596 2.54422C2.08134 2.57401 2.04396 2.61343 2.01659 2.65957C1.98803 2.7251 1.9733 2.79581 1.9733 2.86729C1.9733 2.93876 1.98803 3.00947 2.01659 3.075C2.10642 3.26287 2.52992 4.16082 2.66175 4.44321C2.69044 4.50319 2.70577 4.56869 2.70667 4.63517C2.70667 4.80846 2.54859 4.86856 2.45875 4.86856C2.35084 4.86856 2.24117 4.78629 2.24117 4.68418C2.24117 4.61942 2.27675 4.57975 2.32692 4.57975C2.44884 4.57975 2.44125 4.68302 2.41675 4.74837C2.492 4.71452 2.53634 4.65384 2.52409 4.58966C2.57173 4.58275 2.61504 4.55818 2.64542 4.52082C2.61567 4.48347 2.5795 4.45488 2.52409 4.4543C2.54859 4.35511 2.48209 4.31252 2.41675 4.28918C2.43717 4.36211 2.45059 4.44672 2.32692 4.44672C2.2365 4.44672 2.16534 4.46189 2.12392 4.52082C2.121 4.44263 2.11342 4.13223 2.11342 4.13223C2.10875 4.01612 2.26917 4.01962 2.37125 4.05405C2.33334 3.92102 2.25459 3.84867 2.07084 3.86676C2.09903 3.85581 2.12308 3.8363 2.13961 3.81097C2.15614 3.78565 2.16432 3.75578 2.163 3.72556C2.163 3.61645 2.07434 3.49509 2.01659 3.4595L1.98742 4.59608Z" fill="#FFCC4D"/>
</svg>
