<svg width="24" height="24" viewBox="0 0 24 24" fill="none" xmlns="http://www.w3.org/2000/svg">
<path d="M4.77963 15.2695L7.31963 14.9795C7.92963 14.9095 8.52963 15.1195 8.95963 15.5495L10.7996 17.3895C13.6296 15.9495 15.9496 13.6395 17.3896 10.7995L15.5396 8.94953C15.3269 8.737 15.1651 8.47902 15.0663 8.19497C14.9676 7.91092 14.9346 7.60819 14.9696 7.30953L15.2596 4.78953C15.3796 3.77953 16.2296 3.01953 17.2496 3.01953H18.9796C20.1096 3.01953 21.0496 3.95953 20.9796 5.08953C20.4496 13.6295 13.6196 20.4495 5.08963 20.9795C3.95963 21.0495 3.01963 20.1095 3.01963 18.9795V17.2495C3.00963 16.2395 3.76963 15.3895 4.77963 15.2695Z" fill="black"/>
</svg>
