<svg width="21" height="16" viewBox="0 0 21 16" fill="none" xmlns="http://www.w3.org/2000/svg">
<path d="M21 12.8358C21 13.4548 20.7542 14.0484 20.3166 14.4861C19.879 14.9238 19.2855 15.1696 18.6667 15.1696H2.33333C1.71449 15.1696 1.121 14.9238 0.683417 14.4861C0.245833 14.0484 0 13.4548 0 12.8358V10.502H21V12.8358Z" fill="#CE2028"/>
<path d="M0 4.66797H21V10.5026H0V4.66797Z" fill="#22408C"/>
<path d="M18.6667 0H2.33333C1.71449 0 1.121 0.245887 0.683417 0.683568C0.245833 1.12125 0 1.71487 0 2.33385L0 4.66769H21V2.33385C21 1.71487 20.7542 1.12125 20.3166 0.683568C19.879 0.245887 19.2855 0 18.6667 0Z" fill="#EEEEEE"/>
</svg>
