<svg width="24" height="24" viewBox="0 0 24 24" fill="none" xmlns="http://www.w3.org/2000/svg">
<path fill-rule="evenodd" clip-rule="evenodd" d="M8 3C5.23858 3 3 5.23858 3 8V16C3 18.7614 5.23858 21 8 21H16C18.7614 21 21 18.7614 21 16V8C21 5.23858 18.7614 3 16 3H8ZM6 8.5C5.72386 8.5 5.5 8.72386 5.5 9C5.5 9.27614 5.72386 9.5 6 9.5H15.496C15.7721 9.5 15.996 9.27614 15.996 9C15.996 8.72386 15.7721 8.5 15.496 8.5H6ZM5.5 11.7275C5.5 11.4514 5.72386 11.2275 6 11.2275H15.496C15.7721 11.2275 15.996 11.4514 15.996 11.7275C15.996 12.0037 15.7721 12.2275 15.496 12.2275H6C5.72386 12.2275 5.5 12.0037 5.5 11.7275ZM6 14.1653C5.72386 14.1653 5.5 14.3891 5.5 14.6653C5.5 14.9414 5.72386 15.1653 6 15.1653H13.6698C13.946 15.1653 14.1698 14.9414 14.1698 14.6653C14.1698 14.3891 13.946 14.1653 13.6698 14.1653H6ZM15.3612 14.5409C15.3612 14.2647 15.5851 14.0409 15.8612 14.0409H17.4304V12.4012C17.4304 12.1251 17.6542 11.9012 17.9304 11.9012C18.2065 11.9012 18.4304 12.1251 18.4304 12.4012V14.0409H20C20.2761 14.0409 20.5 14.2647 20.5 14.5409C20.5 14.817 20.2761 15.0409 20 15.0409H18.4304V16.6817C18.4304 16.9579 18.2065 17.1817 17.9304 17.1817C17.6542 17.1817 17.4304 16.9579 17.4304 16.6817V15.0409H15.8612C15.5851 15.0409 15.3612 14.817 15.3612 14.5409Z" fill="black"/>
</svg>
