<svg width="24" height="24" viewBox="0 0 24 24" fill="none" xmlns="http://www.w3.org/2000/svg">
<mask id="path-1-outside-1_156_15590" maskUnits="userSpaceOnUse" x="1.5" y="1.5" width="21" height="21" fill="black">
<rect fill="white" x="1.5" y="1.5" width="21" height="21"/>
<path fill-rule="evenodd" clip-rule="evenodd" d="M7.5 3.5C5.29086 3.5 3.5 5.29086 3.5 7.5V16.5C3.5 18.7091 5.29086 20.5 7.5 20.5H16.5C18.7091 20.5 20.5 18.7091 20.5 16.5V7.5C20.5 5.29086 18.7091 3.5 16.5 3.5H7.5ZM6.33341 8.56634C6.00204 8.56634 5.73341 8.83497 5.73341 9.16634C5.73341 9.49771 6.00204 9.76634 6.33341 9.76634H15.3018C15.6332 9.76634 15.9018 9.49771 15.9018 9.16634C15.9018 8.83497 15.6332 8.56634 15.3018 8.56634H6.33341ZM5.73341 11.7423C5.73341 11.411 6.00204 11.1423 6.33341 11.1423H15.3018C15.6332 11.1423 15.9018 11.411 15.9018 11.7423C15.9018 12.0737 15.6332 12.3424 15.3018 12.3424H6.33341C6.00204 12.3424 5.73341 12.0737 5.73341 11.7423ZM6.33341 13.9167C6.00204 13.9167 5.73341 14.1853 5.73341 14.5167C5.73341 14.848 6.00204 15.1167 6.33341 15.1167H13.5771C13.9085 15.1167 14.1771 14.848 14.1771 14.5167C14.1771 14.1853 13.9085 13.9167 13.5771 13.9167H6.33341ZM15.047 14.3997C15.047 14.0683 15.3156 13.7997 15.647 13.7997H17.0011V12.3789C17.0011 12.0475 17.2697 11.7789 17.6011 11.7789C17.9325 11.7789 18.2011 12.0475 18.2011 12.3789V13.7997H19.5558C19.8872 13.7997 20.1558 14.0683 20.1558 14.3997C20.1558 14.7311 19.8872 14.9997 19.5558 14.9997H18.2011V16.4216C18.2011 16.753 17.9325 17.0216 17.6011 17.0216C17.2697 17.0216 17.0011 16.753 17.0011 16.4216V14.9997H15.647C15.3156 14.9997 15.047 14.7311 15.047 14.3997Z"/>
</mask>
<path d="M17.0011 13.7997V15.2997H18.5011V13.7997H17.0011ZM18.2011 13.7997H16.7011V15.2997H18.2011V13.7997ZM18.2011 14.9997V13.4997H16.7011V14.9997H18.2011ZM17.0011 14.9997H18.5011V13.4997H17.0011V14.9997ZM5 7.5C5 6.11929 6.11929 5 7.5 5V2C4.46243 2 2 4.46243 2 7.5H5ZM5 16.5V7.5H2V16.5H5ZM7.5 19C6.11929 19 5 17.8807 5 16.5H2C2 19.5376 4.46243 22 7.5 22V19ZM16.5 19H7.5V22H16.5V19ZM19 16.5C19 17.8807 17.8807 19 16.5 19V22C19.5376 22 22 19.5376 22 16.5H19ZM19 7.5V16.5H22V7.5H19ZM16.5 5C17.8807 5 19 6.11929 19 7.5H22C22 4.46243 19.5376 2 16.5 2V5ZM7.5 5H16.5V2H7.5V5ZM7.23341 9.16634C7.23341 9.6634 6.83047 10.0663 6.33341 10.0663V7.06634C5.17362 7.06634 4.23341 8.00654 4.23341 9.16634H7.23341ZM6.33341 8.26634C6.83047 8.26634 7.23341 8.66928 7.23341 9.16634H4.23341C4.23341 10.3261 5.17362 11.2663 6.33341 11.2663V8.26634ZM15.3018 8.26634H6.33341V11.2663H15.3018V8.26634ZM14.4018 9.16634C14.4018 8.66929 14.8048 8.26634 15.3018 8.26634V11.2663C16.4616 11.2663 17.4018 10.3261 17.4018 9.16634H14.4018ZM15.3018 10.0663C14.8048 10.0663 14.4018 9.66339 14.4018 9.16634H17.4018C17.4018 8.00655 16.4616 7.06634 15.3018 7.06634V10.0663ZM6.33341 10.0663H15.3018V7.06634H6.33341V10.0663ZM6.33341 9.64235C5.17362 9.64235 4.23341 10.5826 4.23341 11.7423H7.23341C7.23341 12.2394 6.83047 12.6423 6.33341 12.6423V9.64235ZM15.3018 9.64235H6.33341V12.6423H15.3018V9.64235ZM17.4018 11.7423C17.4018 10.5826 16.4616 9.64235 15.3018 9.64235V12.6423C14.8048 12.6423 14.4018 12.2394 14.4018 11.7423H17.4018ZM15.3018 13.8424C16.4616 13.8424 17.4018 12.9021 17.4018 11.7423H14.4018C14.4018 11.2453 14.8048 10.8424 15.3018 10.8424V13.8424ZM6.33341 13.8424H15.3018V10.8424H6.33341V13.8424ZM4.23341 11.7423C4.23341 12.9021 5.17362 13.8424 6.33341 13.8424V10.8424C6.83047 10.8424 7.23341 11.2453 7.23341 11.7423H4.23341ZM7.23341 14.5167C7.23341 15.0137 6.83047 15.4167 6.33341 15.4167V12.4167C5.17362 12.4167 4.23341 13.3569 4.23341 14.5167H7.23341ZM6.33341 13.6167C6.83047 13.6167 7.23341 14.0196 7.23341 14.5167H4.23341C4.23341 15.6765 5.17362 16.6167 6.33341 16.6167V13.6167ZM13.5771 13.6167H6.33341V16.6167H13.5771V13.6167ZM12.6771 14.5167C12.6771 14.0196 13.0801 13.6167 13.5771 13.6167V16.6167C14.7369 16.6167 15.6771 15.6765 15.6771 14.5167H12.6771ZM13.5771 15.4167C13.0801 15.4167 12.6771 15.0137 12.6771 14.5167H15.6771C15.6771 13.3569 14.7369 12.4167 13.5771 12.4167V15.4167ZM6.33341 15.4167H13.5771V12.4167H6.33341V15.4167ZM15.647 12.2997C14.4872 12.2997 13.547 13.2399 13.547 14.3997H16.547C16.547 14.8967 16.144 15.2997 15.647 15.2997V12.2997ZM17.0011 12.2997H15.647V15.2997H17.0011V12.2997ZM18.5011 13.7997V12.3789H15.5011V13.7997H18.5011ZM18.5011 12.3789C18.5011 12.876 18.0982 13.2789 17.6011 13.2789V10.2789C16.4413 10.2789 15.5011 11.2191 15.5011 12.3789H18.5011ZM17.6011 13.2789C17.1041 13.2789 16.7011 12.876 16.7011 12.3789H19.7011C19.7011 11.2191 18.7609 10.2789 17.6011 10.2789V13.2789ZM16.7011 12.3789V13.7997H19.7011V12.3789H16.7011ZM19.5558 12.2997H18.2011V15.2997H19.5558V12.2997ZM21.6558 14.3997C21.6558 13.2399 20.7156 12.2997 19.5558 12.2997V15.2997C19.0588 15.2997 18.6558 14.8967 18.6558 14.3997H21.6558ZM19.5558 16.4997C20.7156 16.4997 21.6558 15.5595 21.6558 14.3997H18.6558C18.6558 13.9026 19.0588 13.4997 19.5558 13.4997V16.4997ZM18.2011 16.4997H19.5558V13.4997H18.2011V16.4997ZM16.7011 14.9997V16.4216H19.7011V14.9997H16.7011ZM16.7011 16.4216C16.7011 15.9246 17.1041 15.5216 17.6011 15.5216V18.5216C18.7609 18.5216 19.7011 17.5814 19.7011 16.4216H16.7011ZM17.6011 15.5216C18.0982 15.5216 18.5011 15.9246 18.5011 16.4216H15.5011C15.5011 17.5814 16.4413 18.5216 17.6011 18.5216V15.5216ZM18.5011 16.4216V14.9997H15.5011V16.4216H18.5011ZM15.647 16.4997H17.0011V13.4997H15.647V16.4997ZM13.547 14.3997C13.547 15.5595 14.4872 16.4997 15.647 16.4997V13.4997C16.144 13.4997 16.547 13.9026 16.547 14.3997H13.547Z" fill="black" mask="url(#path-1-outside-1_156_15590)"/>
</svg>
