<svg width="21" height="16" viewBox="0 0 21 16" fill="none" xmlns="http://www.w3.org/2000/svg">
<path d="M20.6762 1.58268C20.272 0.887932 19.5282 0.416016 18.6667 0.416016H10.5V1.58268H20.6762ZM0 12.0827H21V13.2493H0V12.0827ZM10.5 7.41602H21V8.58268H10.5V7.41602ZM10.5 5.08268H21V6.24935H10.5V5.08268ZM0 9.74935H21V10.916H0V9.74935ZM2.33333 15.5827H18.6667C19.5282 15.5827 20.272 15.1108 20.6762 14.416H0.32375C0.728 15.1108 1.47175 15.5827 2.33333 15.5827ZM10.5 2.74935H21V3.91602H10.5V2.74935Z" fill="#B22334"/>
<path d="M0.0396667 13.6448C0.0495833 13.699 0.0606667 13.7533 0.0740833 13.8064C0.08925 13.8653 0.107917 13.9219 0.12775 13.979C0.179667 14.1301 0.242667 14.2759 0.322 14.4124L0.32375 14.4154H20.6762L20.6774 14.413C20.7557 14.2755 20.8206 14.1308 20.8711 13.9808C20.9095 13.8713 20.9391 13.759 20.9597 13.6448C20.9837 13.5164 21 13.3846 21 13.2487H0C0 13.3846 0.0163333 13.5159 0.0396667 13.6448ZM0 10.9154H21V12.082H0V10.9154ZM0 8.58203V9.7487H21V8.58203H10.5H0ZM10.5 6.2487H21V7.41536H10.5V6.2487ZM10.5 3.91536H21V5.08203H10.5V3.91536ZM0.32375 1.58203L0.322 1.58495L0.32375 1.58203ZM0.0746667 2.19103C0.08925 2.13153 0.109667 2.07495 0.128333 2.01778C0.108076 2.07477 0.0901719 2.13257 0.0746667 2.19103ZM10.5 2.7487H21C21 2.61278 20.9837 2.48095 20.9597 2.35203C20.9393 2.23776 20.9095 2.12538 20.8705 2.01603C20.8199 1.86542 20.7549 1.72007 20.6762 1.58203H10.5V2.7487Z" fill="#EEEEEE"/>
<path d="M10.5 0.416016H2.33333C1.71449 0.416016 1.121 0.661848 0.683417 1.09943C0.245833 1.53702 0 2.13051 0 2.74935L0 8.58268H10.5V0.416016Z" fill="#3C3B6E"/>
<path d="M1.16699 2.00553L1.52749 2.26745L1.38983 2.69036L1.74974 2.42903L2.11024 2.69036L1.97258 2.26745L2.33308 2.00553H1.88741L1.74974 1.58203L1.61266 2.00553H1.16699ZM2.33366 3.1722L2.69416 3.43411L2.55649 3.85703L2.91641 3.5957L3.27691 3.85703L3.13924 3.43411L3.49974 3.1722H3.05408L2.91641 2.7487L2.77933 3.1722H2.33366ZM4.66699 3.1722L5.02749 3.43411L4.88983 3.85703L5.24974 3.5957L5.61024 3.85703L5.47258 3.43411L5.83308 3.1722H5.38741L5.24974 2.7487L5.11266 3.1722H4.66699ZM7.00033 3.1722L7.36083 3.43411L7.22316 3.85703L7.58308 3.5957L7.94358 3.85703L7.80591 3.43411L8.16641 3.1722H7.72074L7.58308 2.7487L7.44599 3.1722H7.00033ZM2.33366 5.50553L2.69416 5.76745L2.55649 6.19036L2.91641 5.92903L3.27691 6.19036L3.13924 5.76745L3.49974 5.50553H3.05408L2.91641 5.08203L2.77933 5.50553H2.33366ZM4.66699 5.50553L5.02749 5.76745L4.88983 6.19036L5.24974 5.92903L5.61024 6.19036L5.47258 5.76745L5.83308 5.50553H5.38741L5.24974 5.08203L5.11266 5.50553H4.66699ZM7.00033 5.50553L7.36083 5.76745L7.22316 6.19036L7.58308 5.92903L7.94358 6.19036L7.80591 5.76745L8.16641 5.50553H7.72074L7.58308 5.08203L7.44599 5.50553H7.00033ZM3.50033 2.00553L3.86083 2.26745L3.72316 2.69036L4.08308 2.42903L4.44358 2.69036L4.30591 2.26745L4.66641 2.00553H4.22074L4.08308 1.58203L3.94599 2.00553H3.50033ZM5.83366 2.00553L6.19416 2.26745L6.05649 2.69036L6.41641 2.42903L6.77691 2.69036L6.63924 2.26745L6.99974 2.00553H6.55408L6.41641 1.58203L6.27933 2.00553H5.83366ZM8.16699 2.00553L8.52749 2.26745L8.38983 2.69036L8.74974 2.42903L9.11024 2.69036L8.97258 2.26745L9.33308 2.00553H8.88741L8.74974 1.58203L8.61266 2.00553H8.16699ZM1.16699 4.33886L1.52749 4.60078L1.38983 5.0237L1.74974 4.76236L2.11024 5.0237L1.97258 4.60078L2.33308 4.33886H1.88741L1.74974 3.91536L1.61266 4.33886H1.16699ZM3.72316 5.0237L4.08308 4.76236L4.44358 5.0237L4.30591 4.60078L4.66641 4.33886H4.22074L4.08308 3.91536L3.94599 4.33886H3.50033L3.86083 4.60078L3.72316 5.0237ZM5.83366 4.33886L6.19416 4.60078L6.05649 5.0237L6.41641 4.76236L6.77691 5.0237L6.63924 4.60078L6.99974 4.33886H6.55408L6.41641 3.91536L6.27933 4.33886H5.83366ZM8.16699 4.33886L8.52749 4.60078L8.38983 5.0237L8.74974 4.76236L9.11024 5.0237L8.97258 4.60078L9.33308 4.33886H8.88741L8.74974 3.91536L8.61266 4.33886H8.16699ZM1.16699 6.6722L1.52749 6.93411L1.38983 7.35703L1.74974 7.0957L2.11024 7.35703L1.97258 6.93411L2.33308 6.6722H1.88741L1.74974 6.2487L1.61266 6.6722H1.16699ZM3.72316 7.35703L4.08308 7.0957L4.44358 7.35703L4.30591 6.93411L4.66641 6.6722H4.22074L4.08308 6.2487L3.94599 6.6722H3.50033L3.86083 6.93411L3.72316 7.35703ZM5.83366 6.6722L6.19416 6.93411L6.05649 7.35703L6.41641 7.0957L6.77691 7.35703L6.63924 6.93411L6.99974 6.6722H6.55408L6.41641 6.2487L6.27933 6.6722H5.83366ZM8.16699 6.6722L8.52749 6.93411L8.38983 7.35703L8.74974 7.0957L9.11024 7.35703L8.97258 6.93411L9.33308 6.6722H8.88741L8.74974 6.2487L8.61266 6.6722H8.16699Z" fill="white"/>
</svg>
